<svg width="15" height="14" viewBox="0 0 15 14" fill="none" xmlns="http://www.w3.org/2000/svg">
<g id="Group">
<path id="Vector" d="M9.41235 1.1876C9.41235 0.378346 8.54394 -0.0499041 7.99454 0.487096L4.93193 3.48185C4.83845 3.57348 4.71767 3.62418 4.59247 3.62435H2.08472C1.67796 3.62435 1.28786 3.80214 1.00023 4.1186C0.71261 4.43507 0.551025 4.86429 0.551025 5.31185V8.6846C0.551025 9.13215 0.71261 9.56137 1.00023 9.87784C1.28786 10.1943 1.67796 10.3721 2.08472 10.3721H4.59315C4.71835 10.3723 4.83913 10.423 4.93261 10.5146L7.99386 13.5101C8.54326 14.0471 9.41235 13.6181 9.41235 12.8096V1.1876ZM5.61221 4.3226L8.38989 1.60535V12.3918L5.61221 9.67385C5.3315 9.39906 4.96888 9.2472 4.59315 9.2471H2.08472C1.94913 9.2471 1.8191 9.18783 1.72322 9.08234C1.62735 8.97685 1.57349 8.83378 1.57349 8.6846V5.3126C1.57349 5.16341 1.62735 5.02034 1.72322 4.91485C1.8191 4.80936 1.94913 4.7501 2.08472 4.7501H4.59315C4.96888 4.74999 5.3315 4.59814 5.61221 4.32335V4.3226Z" fill="black"/>
<path id="Vector_2" d="M12.1335 2.42277C12.1875 2.37884 12.2488 2.34704 12.3139 2.32918C12.3791 2.31132 12.4468 2.30776 12.5132 2.3187C12.5796 2.32963 12.6434 2.35485 12.7009 2.39291C12.7585 2.43097 12.8086 2.48113 12.8485 2.54052C13.7178 3.83044 14.186 5.39423 14.1839 7.00002C14.1858 8.60588 13.7173 10.1697 12.8479 11.4595C12.7655 11.5741 12.6459 11.6489 12.5143 11.6681C12.3827 11.6874 12.2495 11.6495 12.1428 11.5626C12.0361 11.4757 11.9643 11.3466 11.9426 11.2025C11.9209 11.0584 11.951 10.9106 12.0265 10.7905C12.7655 9.69425 13.1635 8.36495 13.1614 7.00002C13.1635 5.63508 12.7655 4.30579 12.0265 3.20952C11.9866 3.15013 11.9577 3.08267 11.9414 3.01099C11.9252 2.93931 11.922 2.86481 11.9319 2.79175C11.9418 2.7187 11.9648 2.64851 11.9993 2.5852C12.0339 2.52189 12.0795 2.46669 12.1335 2.42277Z" fill="black"/>
<path id="Vector_3" d="M10.8732 4.27751C10.9322 4.24229 10.997 4.2202 11.0638 4.21252C11.1306 4.20484 11.1981 4.21171 11.2625 4.23275C11.3268 4.25378 11.3868 4.28856 11.439 4.33511C11.4911 4.38165 11.5344 4.43905 11.5664 4.50401C11.9318 5.24651 12.139 6.09776 12.139 7.00001C12.1401 7.87151 11.9433 8.7295 11.5664 9.49602C11.5019 9.6273 11.3926 9.72499 11.2626 9.76761C11.1326 9.81023 10.9925 9.79428 10.8732 9.72326C10.7539 9.65225 10.6651 9.532 10.6264 9.38896C10.5876 9.24591 10.6021 9.0918 10.6667 8.96052C10.953 8.37777 11.1165 7.71101 11.1165 7.00001C11.1165 6.28901 10.953 5.62226 10.6667 5.03951C10.6347 4.97452 10.6146 4.90322 10.6077 4.8297C10.6008 4.75618 10.6071 4.68188 10.6263 4.61104C10.6454 4.5402 10.6771 4.47422 10.7195 4.41686C10.7619 4.35951 10.8141 4.3119 10.8732 4.27676V4.27751Z" fill="black"/>
</g>
</svg>
