<svg width="14" height="19" viewBox="0 0 14 19" fill="none" xmlns="http://www.w3.org/2000/svg">
<path d="M12.4618 8.60225C13.1456 7.40837 13.3747 5.96132 13.0987 4.57944C12.8226 3.19756 12.0641 1.99405 10.9899 1.23366C9.9157 0.473263 8.61385 0.218282 7.37074 0.524804C6.12762 0.831327 5.04508 1.67424 4.36125 2.86813L4.32431 2.92285L4.29533 2.98321C3.63212 4.16534 3.4132 5.58983 3.6857 6.94988C3.7217 7.13656 3.76762 7.3207 3.82322 7.50135L0.424085 16.0938C0.321087 16.3538 0.305343 16.6462 0.379709 16.918C0.454075 17.1897 0.613624 17.4229 0.829404 17.5752L1.96842 18.3814C2.18379 18.5344 2.44134 18.5965 2.69432 18.5564C2.94731 18.5163 3.17898 18.3768 3.34728 18.1631L8.91293 11.1042C9.08369 11.0838 9.25321 11.0521 9.42059 11.0094C10.6444 10.7086 11.7129 9.88547 12.3959 8.71733L12.4328 8.66261L12.4618 8.60225ZM12.0285 4.89273C12.2045 5.76835 12.1184 6.6838 11.7834 7.49994L5.5467 3.08517C5.99789 2.49876 6.58731 2.0639 7.24871 1.82947C7.91011 1.59504 8.61726 1.57033 9.29068 1.75813C9.96411 1.94592 10.5771 2.33877 11.0608 2.89251C11.5444 3.44626 11.8796 4.13895 12.0285 4.89273ZM2.54139 17.3811L1.40238 16.5748L4.45305 8.8741C5.18226 10.0188 6.28609 10.8002 7.52758 11.0505L2.54139 17.3811ZM4.72856 6.69273C4.55266 5.81711 4.63874 4.90166 4.97372 4.08552L5.5467 3.08517L11.7834 7.49994C11.3322 8.08635 10.1698 9.52156 9.5084 9.75599C8.847 9.99042 8.13985 10.0151 7.46642 9.82733C6.793 9.63954 6.18001 9.24669 5.69635 8.69295C5.21269 8.1392 4.87753 7.44651 4.72856 6.69273Z" fill="#C4C4C4"/>
</svg>
